<svg xmlns="http://www.w3.org/2000/svg" viewBox="0 0 100 100" fill="none">
  <circle cx="50" cy="50" r="45" fill="#FFFFFF"/>
  <path d="M35 30C35 27.2386 37.2386 25 40 25H60C62.7614 25 65 27.2386 65 30V40C65 42.7614 62.7614 45 60 45H40C37.2386 45 35 42.7614 35 40V30Z" fill="#E63946"/>
  <circle cx="50" cy="65" r="15" fill="#E63946"/>
  <path d="M50 32C53.3137 32 56 34.6863 56 38C56 41.3137 53.3137 44 50 44C46.6863 44 44 41.3137 44 38C44 34.6863 46.6863 32 50 32Z" fill="#FFFFFF"/>
  <path d="M42 65C42 60.5817 45.5817 57 50 57C54.4183 57 58 60.5817 58 65C58 69.4183 54.4183 73 50 73C45.5817 73 42 69.4183 42 65Z" fill="#FFFFFF"/>
  <path d="M46 65C46 62.7909 47.7909 61 50 61C52.2091 61 54 62.7909 54 65C54 67.2091 52.2091 69 50 69C47.7909 69 46 67.2091 46 65Z" fill="#E63946"/>
</svg>
