<svg width="60" height="60" viewBox="0 0 60 60" xmlns="http://www.w3.org/2000/svg">
  <path d="M54 22c0 1.1-.9 2-2 2s-2-.9-2-2 .9-2 2-2 2 .9 2 2zm-2-8c-1.1 0-2 .9-2 2s.9 2 2 2 2-.9 2-2-.9-2-2-2zm-8-4c-1.1 0-2 .9-2 2s.9 2 2 2 2-.9 2-2-.9-2-2-2zm0 18c1.1 0 2-.9 2-2s-.9-2-2-2-2 .9-2 2 .9 2 2 2zm-8-14c0 1.1.9 2 2 2s2-.9 2-2-.9-2-2-2-2 .9-2 2zm2 14c1.1 0 2-.9 2-2s-.9-2-2-2-2 .9-2 2 .9 2 2 2zm-8-4c-1.1 0-2 .9-2 2s.9 2 2 2 2-.9 2-2-.9-2-2-2zm0-10c-1.1 0-2 .9-2 2s.9 2 2 2 2-.9 2-2-.9-2-2-2zm-8 0c-1.1 0-2 .9-2 2s.9 2 2 2 2-.9 2-2-.9-2-2-2zm0 10c-1.1 0-2 .9-2 2s.9 2 2 2 2-.9 2-2-.9-2-2-2zm24 24c-1.1 0-2 .9-2 2s.9 2 2 2 2-.9 2-2-.9-2-2-2zm-8 4c-1.1 0-2 .9-2 2s.9 2 2 2 2-.9 2-2-.9-2-2-2zm0-14c-1.1 0-2 .9-2 2s.9 2 2 2 2-.9 2-2-.9-2-2-2zm-8 14c0 1.1.9 2 2 2s2-.9 2-2-.9-2-2-2-2 .9-2 2zm-8-4c0 1.1.9 2 2 2s2-.9 2-2-.9-2-2-2-2 .9-2 2zm-8 0c0 1.1.9 2 2 2s2-.9 2-2-.9-2-2-2-2 .9-2 2zm8-14c0 1.1.9 2 2 2s2-.9 2-2-.9-2-2-2-2 .9-2 2zm16-16c0 1.1.9 2 2 2s2-.9 2-2-.9-2-2-2-2 .9-2 2zm-8-4c0 1.1.9 2 2 2s2-.9 2-2-.9-2-2-2-2 .9-2 2zm-8 0c0 1.1.9 2 2 2s2-.9 2-2-.9-2-2-2-2 .9-2 2zm-8 0c0 1.1.9 2 2 2s2-.9 2-2-.9-2-2-2-2 .9-2 2z" fill="#E53E3E" fill-opacity="0.2"/>
  <path stroke="#E53E3E" stroke-opacity="0.1" stroke-width="1" d="M6 6h48v48H6z"/>
</svg>
