<svg xmlns="http://www.w3.org/2000/svg" viewBox="0 0 1440 320" preserveAspectRatio="none">
  <path fill="#FFFFFF" fill-opacity="0.2" d="M0,96L48,112C96,128,192,160,288,186.7C384,213,480,235,576,218.7C672,203,768,149,864,128C960,107,1056,117,1152,144C1248,171,1344,213,1392,234.7L1440,256L1440,320L1392,320C1344,320,1248,320,1152,320C1056,320,960,320,864,320C768,320,672,320,576,320C480,320,384,320,288,320C192,320,96,320,48,320L0,320Z"></path>
  <path fill="#FFFFFF" fill-opacity="0.1" d="M0,192L48,208C96,224,192,256,288,261.3C384,267,480,245,576,224C672,203,768,181,864,186.7C960,192,1056,224,1152,224C1248,224,1344,192,1392,176L1440,160L1440,320L1392,320C1344,320,1248,320,1152,320C1056,320,960,320,864,320C768,320,672,320,576,320C480,320,384,320,288,320C192,320,96,320,48,320L0,320Z"></path>
</svg>
